<svg width="688" height="590" viewBox="0 0 688 590" fill="none" xmlns="http://www.w3.org/2000/svg">
<path opacity="0.4" d="M624.23 41.4102C479.455 -27.4825 415.592 160.909 315.761 191.906C216.017 237.253 119.838 184.176 60.4514 229.674C-33.6833 301.794 7.63344 427.963 67.8968 481.05C154.317 557.18 307.895 529.78 466.635 447.462C665.517 344.329 751.173 101.817 624.23 41.4102Z" fill="#98C3E8"/>
<path opacity="0.2" d="M143.123 116.5C148.123 129 133.123 148.5 111.623 155C93.1228 160.593 75.1228 160 70.1228 147C65.6997 135.5 79.6228 123 95.6228 116.5C111.623 110 138.123 104 143.123 116.5Z" fill="#98C3E8"/>
<path opacity="0.2" d="M306.623 91C302.732 81.0604 316.439 57.8658 333.425 52.7986C348.042 48.4383 361.734 38.1637 365.623 48.5C369.063 57.6437 358.532 78.3246 345.883 83.415C333.235 88.5054 310.514 100.94 306.623 91Z" fill="#98C3E8"/>
<path opacity="0.2" d="M295.415 583.215C291.524 573.276 303.439 557.866 320.425 552.799C335.042 548.438 349.238 548.985 353.127 559.321C356.567 568.465 345.531 578.325 332.883 583.415C320.235 588.505 299.307 593.155 295.415 583.215Z" fill="#98C3E8"/>
<path opacity="0.2" d="M471.196 532.55C463.101 513.52 488.902 471.235 524.196 461.55C554.565 453.216 603.605 470.26 611.695 490.05C618.852 507.555 571.976 504.66 545.697 514.393C519.418 524.126 479.29 551.579 471.196 532.55Z" fill="#98C3E8"/>
<mask id="mask0" mask-type="alpha" maskUnits="userSpaceOnUse" x="20" y="30" width="647" height="490">
<path d="M606.585 42.9443C466.013 -19.131 409.665 163.479 314.764 196.024C220.317 242.339 126.741 194.084 70.9871 239.416C-17.3894 311.272 25.4839 431.217 84.6293 480.486C169.447 551.139 315.965 520.544 466.013 437.093C654.003 332.539 729.843 97.3739 606.585 42.9443Z" fill="#98C3E8"/>
</mask>
<g mask="url(#mask0)">
<rect x="-85.46" y="-50.5983" width="805.162" height="681.485" fill="url(#paint0_linear)"/>
<path d="M16.1316 166.467C89.9591 203.697 172.621 307.904 172.621 357.662C172.621 418.869 42.8441 512.678 -16.6807 565.893L491.278 598.705C473.189 517.726 427.517 337.7 455.311 297.716C491.278 245.974 636.83 258.594 718.439 268.059L740.525 37.7424C700.771 54.3588 611.8 102.105 563.212 89.4847C518.238 77.8031 431.963 27.4359 395.365 -4.53494" stroke="white" stroke-opacity="0.2" stroke-width="15"/>
<path d="M206.064 109.677C226.257 214.844 281.154 407.637 339.206 337.469C411.772 249.76 469.193 136.179 523.46 211.269C566.873 271.34 630.73 389.843 657.233 441.585" stroke="white" stroke-opacity="0.2" stroke-width="15"/>
<path fill-rule="evenodd" clip-rule="evenodd" d="M433.623 171C433.623 175.418 430.041 179 425.623 179C421.205 179 417.623 175.418 417.623 171C417.623 166.582 421.205 163 425.623 163C430.041 163 433.623 166.582 433.623 171ZM102.623 344C107.041 344 110.623 340.418 110.623 336C110.623 331.582 107.041 328 102.623 328C98.2048 328 94.623 331.582 94.623 336C94.623 340.418 98.2048 344 102.623 344ZM276.623 446C281.041 446 284.623 442.418 284.623 438C284.623 433.582 281.041 430 276.623 430C272.205 430 268.623 433.582 268.623 438C268.623 442.418 272.205 446 276.623 446ZM550.623 328C555.041 328 558.623 324.418 558.623 320C558.623 315.582 555.041 312 550.623 312C546.205 312 542.623 315.582 542.623 320C542.623 324.418 546.205 328 550.623 328Z" fill="white" fill-opacity="0.6"/>
<circle cx="72.623" cy="423" r="18" stroke="white" stroke-opacity="0.4" stroke-width="8"/>
<circle cx="652.623" cy="146" r="18" stroke="white" stroke-opacity="0.4" stroke-width="8"/>
<circle cx="402.623" cy="379" r="18" stroke="white" stroke-opacity="0.4" stroke-width="8"/>
</g>
<g filter="url(#filter0_d)">
<rect x="452.623" y="100" width="88" height="88" rx="10" fill="white"/>
</g>
<path d="M492.623 160V148H500.623V160H510.623V144H516.623L496.623 126L476.623 144H482.623V160H492.623Z" fill="#5A98D0"/>
<g filter="url(#filter1_d)">
<path d="M440.046 10H412.616C408.83 10 405.762 13.0475 405.762 16.8068V44.0493C405.762 47.8086 408.83 50.8561 412.616 50.8561H440.046C443.831 50.8561 446.9 47.8086 446.9 44.0493V16.8068C446.9 13.0475 443.831 10 440.046 10Z" fill="#56CCF2"/>
</g>
<path d="M436.623 29H432.453L435.693 25.76L434.283 24.34L429.623 29H427.623V27L432.283 22.34L430.863 20.93L427.623 24.17V20H425.623V24.17L422.383 20.93L420.963 22.34L425.623 27V29H423.623L418.963 24.34L417.553 25.76L420.793 29H416.623V31H420.793L417.553 34.24L418.963 35.66L423.623 31H425.623V33L420.963 37.66L422.383 39.07L425.623 35.83V40H427.623V35.83L430.863 39.07L432.283 37.66L427.623 33V31H429.623L434.283 35.66L435.693 34.24L432.453 31H436.623V29Z" fill="white"/>
<g filter="url(#filter2_d)">
<path d="M613.907 113H586.477C582.692 113 579.623 116.048 579.623 119.807V147.049C579.623 150.809 582.692 153.856 586.477 153.856H613.907C617.693 153.856 620.761 150.809 620.761 147.049V119.807C620.761 116.048 617.693 113 613.907 113Z" fill="#F2C94C"/>
</g>
<path d="M609.623 130C609.623 125 605.623 121 600.623 121C595.623 121 591.623 125 591.623 130C591.623 133.1 593.223 135.9 595.623 137.5V140C595.623 141.3 596.423 142.4 597.623 142.8V143C597.623 144.7 598.923 146 600.623 146C602.323 146 603.623 144.7 603.623 143V142.8C604.823 142.4 605.623 141.3 605.623 140V137.5C608.023 135.9 609.623 133.1 609.623 130ZM593.623 130C593.623 126.1 596.723 123 600.623 123C604.523 123 607.623 126.1 607.623 130C607.623 133.5 605.023 136.4 601.623 136.9V134.4L603.323 132.7C603.723 132.3 603.723 131.7 603.323 131.3C602.923 130.9 602.323 130.9 601.923 131.3L600.623 132.6L599.323 131.3C598.923 130.9 598.323 130.9 597.923 131.3C597.523 131.7 597.523 132.3 597.923 132.7L599.623 134.4V136.9C596.223 136.4 593.623 133.5 593.623 130ZM600.623 144C600.023 144 599.623 143.6 599.623 143H601.623C601.623 143.6 601.223 144 600.623 144ZM603.623 140C603.623 140.6 603.223 141 602.623 141H598.623C598.023 141 597.623 140.6 597.623 140V138.5C598.523 138.8 599.523 139 600.623 139C601.723 139 602.723 138.8 603.623 138.5V140Z" fill="white"/>
<g filter="url(#filter3_d)">
<path d="M393.907 113H366.477C362.692 113 359.623 116.048 359.623 119.807V147.049C359.623 150.809 362.692 153.856 366.477 153.856H393.907C397.693 153.856 400.761 150.809 400.761 147.049V119.807C400.761 116.048 397.693 113 393.907 113Z" fill="#F58A8A"/>
</g>
<path d="M386.623 129H385.623V127C385.623 124.24 383.383 122 380.623 122C377.863 122 375.623 124.24 375.623 127V129H374.623C373.523 129 372.623 129.9 372.623 131V141C372.623 142.1 373.523 143 374.623 143H386.623C387.723 143 388.623 142.1 388.623 141V131C388.623 129.9 387.723 129 386.623 129ZM380.623 138C379.523 138 378.623 137.1 378.623 136C378.623 134.9 379.523 134 380.623 134C381.723 134 382.623 134.9 382.623 136C382.623 137.1 381.723 138 380.623 138ZM383.723 129H377.523V127C377.523 125.29 378.913 123.9 380.623 123.9C382.333 123.9 383.723 125.29 383.723 127V129Z" fill="white"/>
<g filter="url(#filter4_d)">
<path d="M567.907 10H540.477C536.692 10 533.623 13.0475 533.623 16.8068V44.0493C533.623 47.8086 536.692 50.8561 540.477 50.8561H567.907C571.693 50.8561 574.761 47.8086 574.761 44.0493V16.8068C574.761 13.0475 571.693 10 567.907 10Z" fill="#6FCF97"/>
</g>
<path d="M559.934 24.8964H543.603V35.1033H559.934V24.8964Z" fill="white"/>
<path d="M564.336 26.9276L560.731 28.4427V31.6002L564.336 33.1153H565.643V26.9276H564.336Z" fill="white"/>
<path d="M500.014 183C498.897 187.364 500.41 189.88 501.601 190.5C503.963 191.73 506.601 193.27 506.601 193.27C506.601 193.27 523.029 221.414 527.791 223.429C533.347 225.778 546.045 227 546.045 227L551.601 215.889C551.601 215.889 538.902 213.111 533.347 211.921C529.603 211.118 513.109 193.27 513.109 193.27L516.283 187.714H510.331C505.966 184.54 503.601 178 503.601 178C503.601 178 500.776 180.02 500.014 183Z" fill="url(#paint1_linear)"/>
<path d="M565.101 233.5C563.101 231.5 551.601 228.333 546.101 227L551.601 216C553.767 216 560.101 215.5 568.101 213.5C578.101 211 581.601 202 593.101 211.5C602.301 219.1 618.267 252.333 625.101 268C614.354 278.243 607.217 281.569 593.101 284.5C592.267 282.833 589.801 277.2 586.601 268C582.601 256.5 570.101 256.5 568.101 252.5C566.101 248.5 567.601 236 565.101 233.5Z" fill="url(#paint2_linear)"/>
<path d="M601.101 347C597.501 339 597.434 301 596.101 283.5C608.295 281.103 614.734 278.016 625.101 267.5C625.101 267.5 642.101 275.5 641.101 294C640.101 312.5 647.621 321.841 652.101 328C656.101 333.5 665.601 345.167 670.601 353L665.601 362.5C660.101 356.667 644.001 344.8 635.601 338C627.201 331.2 624.434 314.167 623.101 305C622.267 314.667 618.101 332.4 620.101 338C622.101 343.6 643.601 360.5 652.101 369L649.101 377.5C634.601 370.667 604.701 355 601.101 347Z" fill="url(#paint3_linear)"/>
<path d="M559.101 199.5C559.501 197.9 558.934 193.167 559.601 191.5C564.401 192.3 567.101 195.667 568.101 197C569.101 196.833 570.535 196.369 571.101 197.5C571.601 198.5 571.101 200.5 569.601 202L573.101 211.5C571.442 212.577 570.432 212.939 568.601 213.5C569.601 211 569.101 209 568.601 208C565.001 210.8 563.601 210.667 562.101 210.5L560.6 204L558.101 204.5C558.601 203.667 558.701 201.1 559.101 199.5Z" fill="url(#paint4_linear)"/>
<path d="M568.1 197C566.1 194.2 561.267 192.167 559.1 191.5C555.1 188.5 557.1 182 566.6 179C576.1 176 580.1 184 582.1 186C584.1 188 585.1 194.5 594.1 198.5C603.1 202.5 602.6 197.5 608.1 197.5C613.6 197.5 616.1 201 615.1 204C614.1 207 613.6 210.5 619.6 214.5C625.6 218.5 620.1 224 619.6 230C619.1 236 611.1 233 602.6 233C594.1 233 595.6 233 594.1 227.5C592.6 222 590.1 220 587.1 218.5C584.1 217 577.1 218 575.6 216.5C574.4 215.3 571.1 206.333 569.6 202C570.267 201 571.5 198.7 571.1 197.5C570.7 196.3 568.933 196.667 568.1 197Z" fill="#F2994A"/>
<path d="M549.101 257.5L573.101 256C575.901 256.4 580.601 259.833 582.601 261.5C581.934 263 580.001 266 577.601 266C575.201 266 557.601 263 549.101 261.5H547.101V254L549.101 257.5Z" fill="url(#paint5_linear)"/>
<path d="M547.101 265V248H538.601V265H547.101Z" fill="#F2C94C"/>
<path d="M665.601 391.5C663.201 391.1 653.434 381.833 649.101 377.5L652.101 369C654.101 369.833 658.301 371.3 659.101 372.5C660.101 374 668.601 392 665.601 391.5Z" fill="#5A98D0"/>
<path d="M677.601 380.5C676.401 378.5 669.101 368.833 665.601 362.5L670.601 353C672.934 355 673.101 355 675.601 358.5C676.763 360.127 679.101 383 677.601 380.5Z" fill="#5A98D0"/>
<path opacity="0.2" d="M626.101 290.5L623.101 305.5C623.601 311 626.601 324.5 631.601 334C625.601 315 627.601 300.833 626.101 290.5Z" fill="black"/>
<path d="M195.623 515L194.123 510L202.123 508.5C205.956 510.5 213.323 514.9 212.123 516.5C211.723 517.3 200.956 515.833 195.623 515Z" fill="#D06262"/>
<path d="M155.123 468L159.623 475.5C159.29 480.667 158.223 490.8 156.623 490C155.023 489.2 149.956 476.333 147.623 470L155.123 468Z" fill="#D06262"/>
<path d="M128.952 422.993C123.622 417.458 118.779 407.024 117.024 402.5C122.152 400.019 133.548 394.352 138.108 391.522C142.668 388.693 151.316 382.274 155.07 379.418C157.26 381.392 163.633 386.262 171.604 389.948C192.075 399.613 203.768 412.095 207.808 423.272C211.041 432.213 197.798 445.449 190.274 450.994C185.915 443.586 183.292 440.59 178.124 433.534L179.88 425.338L169.556 422.271C171.082 424.307 176.084 431.01 183.881 441.54C197.951 459.125 202.823 489.172 203.501 501.997C200.876 502.573 194.413 503.636 189.56 503.279C188.987 497.05 181.182 483.211 173.729 470.959C172.213 472.773 170.112 474.942 168.888 475.054C162.693 473.214 160.774 465.089 160.589 461.256L165.271 457.335C164.629 456.31 164.029 455.349 163.479 454.463C155.816 442.113 135.613 429.912 128.952 422.993Z" fill="#1F3F68"/>
<path d="M156.97 378.239C142.436 389.451 112.351 409.557 108.285 400.291C103.203 388.708 104.199 388.616 101.389 385.36C98.5785 382.103 97.8916 374.635 96.621 371.739C95.9825 370.284 90.834 363.917 86.7184 356.08C86.7184 356.08 86.5947 355.853 86.3856 355.439C83.4636 349.737 81.1559 343.32 81.5356 337.477C81.826 328.914 88.3393 323.391 88.3393 323.391C92.2211 319.253 95.862 318.558 97.123 318.669L97.1464 318.685C100.181 320.749 104.668 323.8 106.257 323.654C107.851 323.508 110.123 320.5 111.623 319C119.229 319.807 121.552 317.859 127.497 318.669C134.828 319.669 154.623 330 170.123 302.5C171.663 302.861 175.134 304.229 177.623 304C169.123 329 161.623 336.781 154.623 339.231C149.251 341.112 145.018 341.636 141.675 341.602C141.061 344.863 140.246 350.224 138.887 355.691C141.681 360.807 144.635 365.505 146.955 367.612C152.981 373.083 159.786 376.102 156.97 378.239Z" fill="white"/>
<path d="M156.685 407.89L170.1 422.723L179.881 425.338L179.297 429.911C181.542 427.027 184.42 420.101 177.969 415.472C171.518 410.844 161.092 408.489 156.685 407.89Z" fill="black" fill-opacity="0.2"/>
<path d="M165.248 457.313L173.547 471.111L172.19 472.742C170.965 470.344 167.749 468.129 165.031 465.869C162.856 464.061 162.4 460.922 162.444 459.579L165.248 457.313Z" fill="black" fill-opacity="0.2"/>
<path d="M126.69 382.028C112.493 380.522 95.2269 365.675 88.3686 358.439C104.227 372.546 122.655 376.374 128.493 374.331C133.163 372.696 136.743 360.527 138.624 355.5L142.422 362.003C143.094 369.306 140.888 383.534 126.69 382.028Z" fill="black" fill-opacity="0.2"/>
<path d="M121.59 353.877C118.443 354.452 110.297 347.551 106.642 344.206C120.097 354.014 120.124 349 137.124 337C136.385 338.072 129.124 352.5 121.59 353.877Z" fill="black" fill-opacity="0.2"/>
<path d="M142.123 339.5C140.41 339.156 138.919 338.576 137.123 337L138.623 333.5C138.456 332.667 138.223 330.8 138.623 330C139.023 329.2 140.623 328.333 141.123 328L140.623 330.5L143.123 327.5L147.123 331L146.623 334.5L143.623 336L142.123 339.5Z" fill="#F2994A"/>
<path d="M178.623 299L177.623 304C176.023 304.4 171.79 303.167 170.123 302.5C170.623 301 172.223 297 172.623 295C173.023 293 176.79 290.833 178.623 290H180.623L178.623 293.5V299Z" fill="#F2994A"/>
<path d="M94.6228 308.5C95.4228 310.1 97.6228 313.5 98.6228 315C99.2895 313.667 100.223 310.7 98.6228 309.5C97.0228 308.3 95.6228 306.333 95.1228 305.5C95.6228 305.167 96.9228 304.5 98.1228 304.5C97.3228 298.5 101.456 296.333 103.623 296L112.123 295.5L112.623 298C115.789 295 121.523 288.5 119.123 286.5C116.123 284 107.123 290.5 101.123 290.5C95.1228 290.5 92.6228 293.5 91.1228 296.5C89.6228 299.5 93.6228 306.5 94.6228 308.5Z" fill="#316099"/>
<path d="M106.123 324C104.523 324 99.9564 320.833 97.123 319C98.4564 318.333 99.123 315.8 99.123 315C99.123 314 100.123 310 99.123 309.5C98.123 309 95.123 307 95.123 306C95.123 305.2 97.123 305 98.123 305C97.7897 303.333 97.723 299.5 100.123 297.5C102.523 295.5 109.123 295.333 112.123 295.5C112.29 296.167 112.923 299 114.123 305C115.323 311 112.623 313.833 111.123 314.5L111.623 319C110.456 320.5 107.723 324 106.123 324Z" fill="#F2994A"/>
<path d="M202.123 508.5L201.623 502.5C198.092 503.446 195.994 503.613 192.123 503.5L194.123 510L202.123 508.5Z" fill="#98C3E8"/>
<path d="M159.623 475.5L165.623 473.5C162.945 470.423 162.044 468.668 161.123 465.5L155.123 468L159.623 475.5Z" fill="#98C3E8"/>
<rect opacity="0.8" x="186.623" y="228" width="266.284" height="189.301" rx="5" fill="url(#paint6_linear)"/>
<path d="M186.623 233C186.623 230.239 188.862 228 191.623 228H263.606V417.301H191.623C188.862 417.301 186.623 415.063 186.623 412.301V233Z" fill="white"/>
<circle cx="198.623" cy="240" r="4" fill="#FA9595"/>
<circle cx="211.623" cy="240" r="4" fill="#FDF397"/>
<circle cx="223.623" cy="240" r="4" fill="#C1FEBB"/>
<path opacity="0.4" fill-rule="evenodd" clip-rule="evenodd" d="M195.623 334H253.623V341H195.623V334ZM195.623 348H253.623V355H195.623V348ZM234.623 364H195.623V371H234.623V364Z" fill="#5A98D0"/>
<path opacity="0.1" fill-rule="evenodd" clip-rule="evenodd" d="M372.623 253H430.623V260H372.623V253ZM372.623 267H430.623V274H372.623V267ZM411.623 283H372.623V290H411.623V283Z" fill="black"/>
<g filter="url(#filter5_d)">
<rect x="178.623" y="254" width="81" height="50" rx="5" fill="#56CCF2"/>
</g>
<path d="M202.967 276.136C202.311 275.24 201.383 274.792 200.167 274.792C199.063 274.792 198.135 275.192 197.351 276.008C196.567 276.824 196.183 277.816 196.183 279C196.183 280.168 196.567 281.176 197.351 281.992C198.135 282.808 199.063 283.208 200.167 283.208C201.383 283.208 202.311 282.76 202.967 281.848V283H204.695V275H202.967V276.136ZM198.631 280.84C198.151 280.344 197.911 279.736 197.911 279C197.911 278.264 198.151 277.656 198.631 277.176C199.111 276.68 199.719 276.44 200.439 276.44C201.159 276.44 201.767 276.68 202.247 277.176C202.727 277.656 202.967 278.264 202.967 279C202.967 279.736 202.727 280.344 202.247 280.84C201.767 281.32 201.159 281.56 200.439 281.56C199.719 281.56 199.111 281.32 198.631 280.84ZM211.701 271.592C209.333 271.448 208.085 272.648 208.085 274.84V275H206.869V276.664H208.085V283H209.813V276.664H211.701V275H209.813V274.84C209.813 273.672 210.437 273.144 211.701 273.256V271.592ZM215.24 275H213.512V283H215.24V278.968C215.24 278.152 215.48 277.56 215.976 277.208C216.472 276.84 217.048 276.68 217.704 276.728V274.856C216.504 274.856 215.672 275.352 215.24 276.344V275ZM221.413 273.48C221.861 273.032 221.861 272.36 221.429 271.928C220.997 271.48 220.293 271.48 219.861 271.928C219.429 272.36 219.429 273.032 219.861 273.48C220.309 273.912 220.981 273.912 221.413 273.48ZM221.509 283V275H219.781V283H221.509ZM230.651 276.136C229.995 275.24 229.067 274.792 227.851 274.792C226.747 274.792 225.819 275.192 225.035 276.008C224.251 276.824 223.867 277.816 223.867 279C223.867 280.168 224.251 281.176 225.035 281.992C225.819 282.808 226.747 283.208 227.851 283.208C229.067 283.208 229.995 282.76 230.651 281.848V283H232.379V275H230.651V276.136ZM226.315 280.84C225.835 280.344 225.595 279.736 225.595 279C225.595 278.264 225.835 277.656 226.315 277.176C226.795 276.68 227.403 276.44 228.123 276.44C228.843 276.44 229.451 276.68 229.931 277.176C230.411 277.656 230.651 278.264 230.651 279C230.651 279.736 230.411 280.344 229.931 280.84C229.451 281.32 228.843 281.56 228.123 281.56C227.403 281.56 226.795 281.32 226.315 280.84ZM239.402 274.792C238.266 274.792 237.45 275.208 236.922 276.024V275H235.194V283H236.922V278.712C236.922 277.16 237.738 276.408 238.954 276.408C240.058 276.408 240.746 277.064 240.746 278.264V283H242.474V278.088C242.474 276.04 241.242 274.792 239.402 274.792Z" fill="white"/>
<rect x="280.623" y="246" width="79" height="77" rx="5" fill="#EB5757"/>
<g clip-path="url(#clip0)">
<path d="M311.623 271V299L333.623 285L311.623 271Z" fill="white"/>
</g>
<g filter="url(#filter6_d)">
<rect x="280.623" y="336" width="154" height="63" rx="5" fill="#6FCF97"/>
</g>
<path d="M294.123 381C303.623 374.5 307.623 366 325.623 366C343.623 366 345.203 376 356.123 376C369.123 376 381.623 356.5 395.623 356.5C409.623 356.5 413.123 366.5 420.623 367" stroke="black" stroke-opacity="0.1" stroke-width="2" stroke-linecap="round" stroke-linejoin="round"/>
<path d="M293.623 381.5C303.123 375 305.623 356 323.623 356C341.623 356 345.703 372.5 356.623 372.5C369.623 372.5 381.123 345.5 395.123 345.5C409.123 345.5 413.623 366.5 421.123 367" stroke="white" stroke-width="2" stroke-linecap="round" stroke-linejoin="round"/>
<defs>
<filter id="filter0_d" x="402.623" y="50" width="188" height="188" filterUnits="userSpaceOnUse" color-interpolation-filters="sRGB">
<feFlood flood-opacity="0" result="BackgroundImageFix"/>
<feColorMatrix in="SourceAlpha" type="matrix" values="0 0 0 0 0 0 0 0 0 0 0 0 0 0 0 0 0 0 127 0"/>
<feOffset/>
<feGaussianBlur stdDeviation="25"/>
<feColorMatrix type="matrix" values="0 0 0 0 0.0627451 0 0 0 0 0.439216 0 0 0 0 0.694118 0 0 0 0.25 0"/>
<feBlend mode="normal" in2="BackgroundImageFix" result="effect1_dropShadow"/>
<feBlend mode="normal" in="SourceGraphic" in2="effect1_dropShadow" result="shape"/>
</filter>
<filter id="filter1_d" x="395.762" y="0" width="71.1381" height="70.8561" filterUnits="userSpaceOnUse" color-interpolation-filters="sRGB">
<feFlood flood-opacity="0" result="BackgroundImageFix"/>
<feColorMatrix in="SourceAlpha" type="matrix" values="0 0 0 0 0 0 0 0 0 0 0 0 0 0 0 0 0 0 127 0"/>
<feOffset dx="5" dy="5"/>
<feGaussianBlur stdDeviation="7.5"/>
<feColorMatrix type="matrix" values="0 0 0 0 0 0 0 0 0 0 0 0 0 0 0 0 0 0 0.15 0"/>
<feBlend mode="normal" in2="BackgroundImageFix" result="effect1_dropShadow"/>
<feBlend mode="normal" in="SourceGraphic" in2="effect1_dropShadow" result="shape"/>
</filter>
<filter id="filter2_d" x="569.623" y="103" width="71.1381" height="70.8561" filterUnits="userSpaceOnUse" color-interpolation-filters="sRGB">
<feFlood flood-opacity="0" result="BackgroundImageFix"/>
<feColorMatrix in="SourceAlpha" type="matrix" values="0 0 0 0 0 0 0 0 0 0 0 0 0 0 0 0 0 0 127 0"/>
<feOffset dx="5" dy="5"/>
<feGaussianBlur stdDeviation="7.5"/>
<feColorMatrix type="matrix" values="0 0 0 0 0 0 0 0 0 0 0 0 0 0 0 0 0 0 0.15 0"/>
<feBlend mode="normal" in2="BackgroundImageFix" result="effect1_dropShadow"/>
<feBlend mode="normal" in="SourceGraphic" in2="effect1_dropShadow" result="shape"/>
</filter>
<filter id="filter3_d" x="349.623" y="103" width="71.1381" height="70.8561" filterUnits="userSpaceOnUse" color-interpolation-filters="sRGB">
<feFlood flood-opacity="0" result="BackgroundImageFix"/>
<feColorMatrix in="SourceAlpha" type="matrix" values="0 0 0 0 0 0 0 0 0 0 0 0 0 0 0 0 0 0 127 0"/>
<feOffset dx="5" dy="5"/>
<feGaussianBlur stdDeviation="7.5"/>
<feColorMatrix type="matrix" values="0 0 0 0 0 0 0 0 0 0 0 0 0 0 0 0 0 0 0.15 0"/>
<feBlend mode="normal" in2="BackgroundImageFix" result="effect1_dropShadow"/>
<feBlend mode="normal" in="SourceGraphic" in2="effect1_dropShadow" result="shape"/>
</filter>
<filter id="filter4_d" x="523.623" y="0" width="71.1381" height="70.8561" filterUnits="userSpaceOnUse" color-interpolation-filters="sRGB">
<feFlood flood-opacity="0" result="BackgroundImageFix"/>
<feColorMatrix in="SourceAlpha" type="matrix" values="0 0 0 0 0 0 0 0 0 0 0 0 0 0 0 0 0 0 127 0"/>
<feOffset dx="5" dy="5"/>
<feGaussianBlur stdDeviation="7.5"/>
<feColorMatrix type="matrix" values="0 0 0 0 0 0 0 0 0 0 0 0 0 0 0 0 0 0 0.15 0"/>
<feBlend mode="normal" in2="BackgroundImageFix" result="effect1_dropShadow"/>
<feBlend mode="normal" in="SourceGraphic" in2="effect1_dropShadow" result="shape"/>
</filter>
<filter id="filter5_d" x="173.623" y="249" width="101" height="70" filterUnits="userSpaceOnUse" color-interpolation-filters="sRGB">
<feFlood flood-opacity="0" result="BackgroundImageFix"/>
<feColorMatrix in="SourceAlpha" type="matrix" values="0 0 0 0 0 0 0 0 0 0 0 0 0 0 0 0 0 0 127 0"/>
<feOffset dx="5" dy="5"/>
<feGaussianBlur stdDeviation="5"/>
<feColorMatrix type="matrix" values="0 0 0 0 0.0627451 0 0 0 0 0.439216 0 0 0 0 0.694118 0 0 0 0.2 0"/>
<feBlend mode="normal" in2="BackgroundImageFix" result="effect1_dropShadow"/>
<feBlend mode="normal" in="SourceGraphic" in2="effect1_dropShadow" result="shape"/>
</filter>
<filter id="filter6_d" x="270.623" y="330" width="174" height="83" filterUnits="userSpaceOnUse" color-interpolation-filters="sRGB">
<feFlood flood-opacity="0" result="BackgroundImageFix"/>
<feColorMatrix in="SourceAlpha" type="matrix" values="0 0 0 0 0 0 0 0 0 0 0 0 0 0 0 0 0 0 127 0"/>
<feOffset dy="4"/>
<feGaussianBlur stdDeviation="5"/>
<feColorMatrix type="matrix" values="0 0 0 0 0.435294 0 0 0 0 0.811765 0 0 0 0 0.592157 0 0 0 0.2 0"/>
<feBlend mode="normal" in2="BackgroundImageFix" result="effect1_dropShadow"/>
<feBlend mode="normal" in="SourceGraphic" in2="effect1_dropShadow" result="shape"/>
</filter>
<linearGradient id="paint0_linear" x1="375.239" y1="-96.3187" x2="337.416" y2="574.507" gradientUnits="userSpaceOnUse">
<stop stop-color="#D1ECFF"/>
<stop offset="1" stop-color="#1070B1"/>
</linearGradient>
<linearGradient id="paint1_linear" x1="559.358" y1="190.576" x2="507.587" y2="224.395" gradientUnits="userSpaceOnUse">
<stop stop-color="#FFF8E1"/>
<stop offset="1" stop-color="#FFCC80"/>
</linearGradient>
<linearGradient id="paint2_linear" x1="585.601" y1="207.241" x2="585.601" y2="284.5" gradientUnits="userSpaceOnUse">
<stop stop-color="#AF6CED"/>
<stop offset="1" stop-color="#5E199D"/>
</linearGradient>
<linearGradient id="paint3_linear" x1="633.351" y1="267.5" x2="633.351" y2="377.5" gradientUnits="userSpaceOnUse">
<stop stop-color="#EB5757"/>
<stop offset="1" stop-color="#872727"/>
</linearGradient>
<linearGradient id="paint4_linear" x1="575.339" y1="197.146" x2="557.218" y2="204.755" gradientUnits="userSpaceOnUse">
<stop stop-color="#FFF8E1"/>
<stop offset="1" stop-color="#FFCC80"/>
</linearGradient>
<linearGradient id="paint5_linear" x1="587.899" y1="257.08" x2="576.219" y2="278.359" gradientUnits="userSpaceOnUse">
<stop stop-color="#FFF8E1"/>
<stop offset="1" stop-color="#FFCC80"/>
</linearGradient>
<linearGradient id="paint6_linear" x1="193.016" y1="297.155" x2="498.516" y2="330.655" gradientUnits="userSpaceOnUse">
<stop offset="0.127122" stop-color="white"/>
<stop offset="0.972261" stop-color="white" stop-opacity="0.8"/>
</linearGradient>
<clipPath id="clip0">
<rect width="48" height="48" fill="white" transform="translate(295.623 261)"/>
</clipPath>
</defs>
</svg>
